<svg width="187" height="137" viewBox="0 0 187 137" fill="none" xmlns="http://www.w3.org/2000/svg">
<g filter="url(#filter0_d_2142_7)">
<path d="M73.5001 48.5V46.5L13 16V15.5L11.5001 14.5C10.7001 12.9 12.5001 11.8333 13.5001 11.5C46.0001 27.8333 111.9 61 115.5 63C119.1 65 121.333 65.1667 122 65L124.5 63.5L126.5 66H128.5C127.833 66.5 126.5 67.6 126.5 68C126.5 68.4 128.5 69.5 129.5 70C133.333 73.5 141.2 80.7 142 81.5C142.8 82.3 144.333 81.8333 145 81.5L176 110C173.5 114.333 168.2 123.4 167 125C165.8 126.6 164.5 126 164 125.5L146.5 99L137.5 93L137 92C135.8 85.2 131.833 83.8333 130 84C129.667 84.5 128 85.1 124 83.5C120 81.9 121.333 79.1667 122.5 78L79.5001 54C78.3001 51.6 75.0001 49.3333 73.5001 48.5Z" stroke="#FEC945" stroke-width="2"/>
</g>
<defs>
<filter id="filter0_d_2142_7" x="0.700781" y="0.819921" width="186.166" height="135.818" filterUnits="userSpaceOnUse" color-interpolation-filters="sRGB">
<feFlood flood-opacity="0" result="BackgroundImageFix"/>
<feColorMatrix in="SourceAlpha" type="matrix" values="0 0 0 0 0 0 0 0 0 0 0 0 0 0 0 0 0 0 127 0" result="hardAlpha"/>
<feOffset/>
<feGaussianBlur stdDeviation="4.8"/>
<feColorMatrix type="matrix" values="0 0 0 0 0.996078 0 0 0 0 0.709804 0 0 0 0 0 0 0 0 1 0"/>
<feBlend mode="normal" in2="BackgroundImageFix" result="effect1_dropShadow_2142_7"/>
<feBlend mode="normal" in="SourceGraphic" in2="effect1_dropShadow_2142_7" result="shape"/>
</filter>
</defs>
</svg>
